{
  "asset": {
    "version": "2.0",
    "generator": "3dpea GLTFExporter"
  },
  "scenes": [
    {
      "name": "AuxScene",
      "nodes": [
        2
      ]
    }
  ],
  "scene": 0,
  "nodes": [
    {
      "name": "geometry_0",
      "extras": {
        "processed": true,
        "name": "geometry_0"
      },
      "mesh": 0
    },
    {
      "name": "world",
      "extras": {
        "name": "world"
      },
      "children": [
        0
      ]
    },
    {
      "name": "scene",
      "children": [
        1
      ]
    }
  ],
  "bufferViews": [
    {
      "buffer": 0,
      "byteOffset": 0,
      "byteLength": 352128,
      "target": 34962,
      "byteStride": 12
    },
    {
      "buffer": 0,
      "byteOffset": 352128,
      "byteLength": 117376,
      "target": 34962,
      "byteStride": 4
    },
    {
      "buffer": 0,
      "byteOffset": 469504,
      "byteLength": 704208,
      "target": 34963
    }
  ],
  "buffers": [
    {
      "byteLength": 1173712,
      "uri": "data:application/octet-stream;base64,"
    }
  ],
  "accessors": [
    {
      "bufferView": 0,
      "componentType": 5126,
      "count": 29344,
      "max": [
        0.7482605576515198,
        0.9845581650733948,
        0.6503720283508301
      ],
      "min": [
        -0.7822900414466858,
        -0.9372981786727905,
        -0.8302472233772278
      ],
      "type": "VEC3"
    },
    {
      "bufferView": 1,
      "componentType": 5121,
      "count": 29344,
      "max": [
        238,
        235,
        229,
        255
      ],
      "min": [
        11,
        8,
        6,
        255
      ],
      "type": "VEC4",
      "normalized": true
    },
    {
      "bufferView": 2,
      "componentType": 5125,
      "count": 176052,
      "max": [
        29343
      ],
      "min": [
        0
      ],
      "type": "SCALAR"
    }
  ],
  "materials": [
    {
      "pbrMetallicRoughness": {
        "metallicFactor": 1,
        "roughnessFactor": 1
      },
      "name": "Mat_1"
    }
  ],
  "meshes": [
    {
      "primitives": [
        {
          "mode": 4,
          "attributes": {
            "POSITION": 0,
            "COLOR_0": 1
          },
          "indices": 2,
          "material": 0
        }
      ]
    }
  ]
}